<?xml version="1.0" encoding="utf-8"?>
<!-- Generator: Adobe Illustrator 19.2.1, SVG Export Plug-In . SVG Version: 6.00 Build 0)  -->
<svg version="1.1" id="layer" xmlns="http://www.w3.org/2000/svg" xmlns:xlink="http://www.w3.org/1999/xlink" x="0px" y="0px"
	 viewBox="0 0 652 652" style="enable-background:new 0 0 652 652;" xml:space="preserve">
<style type="text/css">
	.st0{fill:#F2EB3C;}
	.st1{fill:#F68B2F;}
	.st2{fill:#F78F33;}
	.st3{fill:#D02242;}
</style>
<g>
	<path class="st0" d="M165.2,292c3.2-4.2,8.2-6.9,13.8-6.9h3.8c4.7-100.4,87.3-176.5,181.3-176.5c17.8,0,39.6,5.3,62.1,14.8
		c1.1,0.4,2.4-0.1,2.8-1.2c0.4-1.1-0.1-2.4-1.2-2.8c-24.8-11-53.4-17.2-85.3-17.2c-103.6,0-188,81.2-192.1,182.9
		C156.4,285.1,161.7,287.8,165.2,292"/>
	<path class="st0" d="M277.1,467.6c-36.1-17.3-61.5-47.3-76.8-83.2c-2.6,0.8-5.4,1.3-8.4,1.3c-6.6,0-11.8-1.9-15.5-4.1
		c-0.9,0.5-2,1-3,1.5c22,40.6,58.4,72.3,102.3,88.6c1.1,0.4,2.3-0.2,2.7-1.3C278.7,469.3,278.2,468.1,277.1,467.6"/>
	<path class="st1" d="M252.6,452.8c-11.3-10.6-32.8-33.9-47.6-69.2c-0.1-0.3-0.2-0.6-0.4-0.9c-1.4,0.7-2.9,1.3-4.4,1.7
		C211.8,411.6,229.2,435.4,252.6,452.8"/>
	<path class="st1" d="M331.7,111.6c-2.4,0.5-4.7,0.9-7.1,1.5c-0.6,0.1-1.1,0.3-1.7,0.4c-1.3,0.3-2.5,0.6-3.8,1
		c-74,19.7-132.4,86.7-136.3,170.6h6.4c0,0,0.2-3,0.4-4.6c2.8-24.2,8.3-77.2,64.8-128.2c24.5-22.1,75.3-39.9,77.7-40.7
		C332,111.5,331.8,111.5,331.7,111.6"/>
	<path class="st2" d="M120.3,251.6l0.4,0.4c6.2,6.2,8.1,14.6,5,22.1c-2.9,7-9.7,11.5-17.3,11.5c-0.7,0-1.4-0.1-2.1-0.1
		c0,0.8-0.1,1.5-0.1,2.3c4.3,2.8,8.7,5.9,13,9.4c2.2-7.1,8.8-12.2,16.6-12.2h3.2c4.4-108.4,94.3-195,204.7-195
		c29,0,56.7,4.3,82,13.1c0.7,0.2,1.3-0.2,1.5-0.8c0.2-0.7-0.2-1.3-0.8-1.5v0c-29.4-14.2-62.5-22.2-97.5-22.2
		c-104.1,0-191.5,70.8-216.1,166.4C116.4,247.7,118.9,250.2,120.3,251.6"/>
	<path class="st2" d="M530.5,387.3c-0.7-0.4-1.6,0-2,0.7l0.1-0.2c-32.7,62.6-98,108.6-185,108.6c-79.3,0-148.1-44.7-182.2-110.2
		c-2,0.3-4.2,0.4-6.5,0.4c-15.2,0-25.7-8.7-31.4-18.3c-1.6,1.6-3.3,3.1-5.1,4.6c30.5,86.2,113.2,148,210.4,148
		c89.6,0,166.9-56.8,202.3-131.7C531.5,388.6,531.2,387.7,530.5,387.3"/>
	<path class="st3" d="M78,237.2c2.8-0.5,5.7-0.7,8.4-0.7c6.4,0,11.9,1.3,16.6,3.2c0.5-1.7,0.9-3.3,1.5-5
		c27.9-86.1,101.8-151.9,190.6-160c3.2,0,3.9-0.8,3.9-1.6c0-0.9-0.2-1.6-4.2-1.6c0,0-0.1,0-0.2,0C194.4,79,110.6,145.9,78,237.2"/>
	<path class="st3" d="M550,376.5c-2,0.2-4,1.5-4.8,3.9C510.6,480.6,419.4,535,325.8,535c-98.1,0-191.1-65-218.9-155.1
		c-11.3,5.1-22,5.8-26.7,5.8c-3.2,0-6.1-0.2-8.8-0.6c27.9,107.7,125.7,186.4,242.1,186.4c113.2,0,216.8-81.4,241.5-185.8
		c0.5-1.9,0.5-3.5,0.2-4.8C553.3,379.6,551.5,378.1,550,376.5"/>
	<path class="st2" d="M536.7,243.9c2.2,5.8,5.3,10.4,10.9,17c-1.3-5.1-1.9-12.8-1.8-17.5c0.6-16.7-10.9-27.1-11.3-9.1
		C534.5,237,535.4,240.6,536.7,243.9"/>
	<path class="st2" d="M519.5,222.9c1,6.2,3.1,11.3,7.2,18.9c-0.2-5.2,0.8-12.9,1.9-17.5c4-16.3-5-28.8-9.2-11.2
		C518.8,215.7,518.9,219.5,519.5,222.9"/>
	<path class="st2" d="M506.5,205.9c2,5.9,4.8,10.6,10.1,17.6c-1.1-5.1-1.3-12.9-0.9-17.6c1.4-16.7-9.5-27.6-10.8-9.6
		C504.7,198.9,505.4,202.6,506.5,205.9"/>
	<path class="st2" d="M537.9,203.6c-15.8-8.7-12.6,6.4,2.1,14.3c4.2,2.3,10.6,6.7,14.3,10.4c-2.9-8.2-5.3-13.2-9.2-18.1
		C543,207.5,540.3,204.9,537.9,203.6"/>
	<path class="st2" d="M520.9,183.7c-16.5-4-9.8,9,5.6,12.5c4.4,1,11.3,3.5,15.6,5.9c-4.7-6.7-8.1-10.7-12.9-14.1
		C526.4,186,523.3,184.3,520.9,183.7"/>
	<path class="st2" d="M490.4,188.1c2,5.9,4.8,10.6,10.1,17.6c-1.1-5.1-1.3-12.9-0.9-17.6c1.4-16.7-9.5-27.6-10.8-9.6
		C488.6,181.1,489.3,184.8,490.4,188.1"/>
	<path class="st2" d="M473.2,171.7c2.4,5.8,5.7,10.2,11.5,16.7c-1.5-5-2.4-12.7-2.3-17.5c0-16.7-11.8-26.7-11.6-8.7
		C470.9,164.9,471.9,168.5,473.2,171.7"/>
	<path class="st2" d="M455.2,159c2.4,5.8,5.7,10.2,11.5,16.7c-1.5-5-2.4-12.7-2.3-17.5c0-16.7-11.8-26.7-11.6-8.7
		C452.8,152.1,453.8,155.7,455.2,159"/>
	<path class="st2" d="M436,146.1c3.1,5.4,6.8,9.5,13.3,15.2c-2-4.8-3.8-12.3-4.3-17.1c-1.9-16.6-14.7-25.2-12.5-7.3
		C432.9,139.5,434.3,143,436,146.1"/>
	<path class="st2" d="M503.4,165.6c-17-1.2-8.2,10.5,7.6,11.4c4.5,0.2,11.7,1.5,16.3,3.2c-5.8-5.8-9.8-9.1-15.1-11.8
		C509.3,166.9,506,165.8,503.4,165.6"/>
	<path class="st2" d="M486.2,149.2c-17-1.2-8.2,10.5,7.6,11.4c4.5,0.2,11.7,1.5,16.3,3.2c-5.8-5.8-9.8-9.1-15.1-11.8
		C492.1,150.5,488.7,149.4,486.2,149.2"/>
	<path class="st2" d="M465.3,134.8c-16.9,1.8-6.2,11.8,9.4,9.9c4.5-0.5,11.8-0.6,16.6,0.2c-6.7-4.7-11.2-7.3-16.9-8.9
		C471.3,135.1,467.8,134.6,465.3,134.8"/>
	<path class="st2" d="M444.5,121.7c-18.7,4.5-5.3,14.1,12.1,9.7c4.9-1.3,13.2-2.4,18.7-2.2c-8.2-4.3-13.7-6.5-20.3-7.5
		C451.3,121.2,447.2,121.1,444.5,121.7"/>
	<path class="st3" d="M73.4,275.7c0-7.4,7.4-14.5,16-14.5c9.4,0,13.6,6,15.5,8c4.5,4.5,10.7-1.3,5.3-6.7
		c-2.7-2.7-10.4-11.2-23.7-11.2c-13.3,0-37.1,8.4-37.1,33.2c0,31.4,49.1,38.5,49.1,59.3c0,14.3-14,16.6-18.3,16.6
		c-11.8,0-18.5-6-21.1-8.6c-4.8-4.8-12,1.9-6.6,7.3c5.4,5.4,11.9,11.8,27.7,11.8c15.8,0,42.4-8.9,42.4-38
		C122.7,302.3,73.4,295.4,73.4,275.7"/>
	<path class="st3" d="M372.4,297.2c-25.7,0-35.3,22.8-35.3,37.9c0,4.3,0.1,35.8,36.3,35.8c17.3,0,25-8.3,27.2-10.5
		c3.6-3.6-0.2-6.6-3-3.7c-3.8,3.8-9.7,7.7-17.4,7.7c-7.7,0-18.9-9.1-18.9-16.3v-12c0-1.4,1.1-2.5,2.5-2.5h40.8
		c1.4,0,2.5-1.1,2.5-2.5C407.1,331.1,406.6,297.2,372.4,297.2 M382.9,325.1h-19c-1.4,0-2.5-1.1-2.5-2.5c0-2.2-0.4-18.2,12.2-18.2
		c10.2,0,11.8,16.3,11.8,18.2C385.4,323.9,384.2,325.1,382.9,325.1"/>
	<path class="st3" d="M198.3,354.9v-4.4v-45.9c0-2.5-2.1-4.6-4.6-4.6h-14.7c-1.4,0-2.5,1.1-2.5,2.5v48c0,7-4.4,12.5-11.4,12.5
		c-7,0-10.3-6.8-10.3-12.5v-45.9c0-2.5-2.1-4.6-4.6-4.6h-14.7c-1.4,0-2.5,1.1-2.5,2.5v48v1.5c0,4.8,6.5,19.9,21.7,19.9
		c15.2,0,19.1-8.2,21.6-8.2c2.6,0,5.5,7.2,15.2,7.2c9.7,0,12.8-9,12.8-10.2C204.7,357.7,198.3,361.5,198.3,354.9"/>
	<path class="st3" d="M280.4,354.9v-36.1c0,0,0,0,0,0c-0.4-7.6-3.4-21.5-21.7-21.6c-12,0-15.4,6-21.7,6.2c-0.5-2-2.3-3.5-4.4-3.5
		h-14.7c-1.4,0-2.5,1.1-2.5,2.5v64.5c0,1.4,1.1,2.5,2.5,2.5H235v-0.1c1.2-0.2,2.1-1.2,2.1-2.4v-55.1c2.4-2.2,6.3-4.8,11.1-4.8
		c8.2,0,10.5,6,10.5,12.3v40.4c0,4.8,4.8,11.2,15.2,11.2c9.7,0,12.8-9,12.8-10.2C286.8,357.7,280.4,361.5,280.4,354.9"/>
	<path class="st3" d="M334,299.9h-8.8c-3.7,0-4-2.6-4-4.9v-10.7c0-7.8,0-12.2,4-12.2c3.2,0,3.6,1.5,7,4.9c4.6,4.6,10.5-1.8,6.6-5.7
		c-3.3-3.3-6.6-6-16.1-6c-15.9,0-23,11-23.9,18.7h-0.1v8c0,11.6-9.5,5.8-9.5,13c0,4.9,9.5,2.5,9.5,10.9v51c0,1.4,1.1,2.5,2.5,2.5
		h15.4c2.5,0,4.6-2.1,4.6-4.6v-50.9c0-4.8,4.4-5.7,9-5.7s6.2-3.6,6.2-5C336.3,301.9,335.7,299.9,334,299.9"/>
	<path class="st3" d="M476.3,354.9v-3.6v-0.8v-26.8c0-6.8-6.6-26.4-32.7-26.4c-13.4,0-19.9,4.8-22.8,7.1c-4,3.2-2,5.9,2.2,2.7
		c4.4-3.3,9.1-4.4,16.7-4.4c8.6,0,15,6.8,15,14.1v4.4c0,1.3,0.1,4.2-4.8,4.4c-4.9,0.2-38.3,2.9-38.3,26.5c0,9.5,6,19.9,21.3,19.9
		s19.1-8.2,21.6-8.2c2.6,0,5.5,7.2,15.2,7.2c9.7,0,12.8-9,12.8-10.2C482.7,357.7,476.3,361.5,476.3,354.9 M454.6,350.4
		c0,7-4.4,12.5-11.4,12.5c-7,0-9.6-7.4-9.6-13.1c0-7.5,8.6-18.6,17.1-18.6c2.6,0,3.9,0.3,3.9,4.6
		C454.6,340.1,454.6,346.6,454.6,350.4"/>
	<path class="st3" d="M579.8,322.1v-7.7c0-0.1,0-0.3,0-0.5c0-4.8,0.8-5.7,5.3-5.7c4.5,0,6.2-3.5,6.2-4.9c0-1.4-0.6-3.4-2.3-3.4h-5.1
		c-4.3,0-4-3.5-4-5.9c0,0,0,0,0,0v-9.2c0-5.9-2.2-5.8-11.3-5.8c-9,0-10.7,5.8-10.7,9.5v3.4l0,0c0,11.6-9.5,5.8-9.5,13
		c0,4.9,9.5,2.5,9.5,10.9l0,0v0v2.5v41.2c0,4.8,4.7,11.3,15.2,11.3c9.7,0,12.8-9,12.8-10.2c0-2.9-6.3,0.9-6.3-5.8v-32.8L579.8,322.1
		z"/>
	<path class="st3" d="M507.4,313c0-6.3,7.1-10.4,15-10.4c7.2,0,14.4,3.7,15.9,5.3c1.6,1.6,4.6,0.1,2-2.4c-2.5-2.6-10-7.3-21.6-7.3
		c-24.7,0-30.8,14.8-30.8,21.1c0,23.8,37.7,21.8,37.7,36.4c0,7.3-10.6,9.8-16,9.8c-5.4,0-10.4-0.1-15.6-2.5c-3.2-1.5-5.3,1-2.6,3.7
		c2.8,2.8,16,4.1,22.3,4.1c6.3,0,31.5-0.2,31.5-23.7C545.2,322.8,507.4,324.9,507.4,313"/>
</g>
</svg>
